<svg xmlns="http://www.w3.org/2000/svg" viewBox="0 0 1000 250">
  <path fill="none" d="M0 0h1000v250H0z"/>
  <g fill="#0098DD">
    <path d="M186.548 206.22H140.02c-49.043 0-67.276-15.976-67.276-58.964 0-66.738 31.465-103.49 88.584-103.49h61.72l9.696-42.682h-86.18c-49.733 0-80.01 8.437-101.33 28.198C17.192 55.366 0 104.478 0 158.945c0 67.14 24.297 89.97 96.084 89.97h80.947l9.518-42.694zM296.265 192.9h50.288l20.185-90.15 43.936 90.15h52.348l30.66-136H443.39l-17.765 78.442L388.99 56.9h-62.252l-30.473 136"/>
    <path d="M889.14 91.816h29.903c21.133 0 26.914 4.6 26.914 21.48 0 27.436-13.828 44.702-35.88 44.702H874.18l14.96-66.182zM813.79 192.9h109.745c49.922 0 76.465-29.922 76.465-86.318 0-34.912-15.703-49.683-52.54-49.683H844.278l-30.488 136zM633.75 175.762l-20.273-25.83c31.21-6.72 47.656-24.366 47.656-51.597 0-29.546-17.188-41.436-60.37-41.436h-89.747l-30.645 136h52.716l22.812-101.084h33.457c14.96 0 22.813 4.6 22.813 13.233 0 12.274-7.11 18.407-21.7 18.407h-36.816l25.235 43.545c14.765 25.137 16.074 25.898 45.625 25.898h52.656l16.465-24.355h55.527l-5.43 24.355h52.735l30.644-136h-63.555c-44.688 0-46.367.96-75.352 42.01l-54.453 76.852zm121.328-40.42h-40.37l15.702-23.96c11.21-17.46 14.57-19.566 30.84-19.566h3.555l-9.727 43.526z" fill-rule="evenodd" clip-rule="evenodd"/>
  </g>
  <path d="M181.875 88.066l32.08.015 6.836-31.176-57.06-.005c-50.107 0-77.402 31.84-77.402 90.54 0 33.76 14.4 45.46 56.275 45.46h47.64l7.37-32.793h-27.72c-3.257 0-8.897-.322-11.7-.498l-.34-.09c-2.116-.155-3.34-.37-5.46-.82-1.045-.224-1.817-.35-2.754-.604-1.378-.39-2.203-.625-2.98-.89-7.91-2.577-11.557-8.397-11.69-20.263.274-31.552 17.06-48.877 46.905-48.877z" fill="#FFE600"/>
  <path d="M242.28 56.904h-22.192l-6.836 30.47-32.085-.02c-30.093 0-46.934 17.602-46.934 49.648 0 16.787 6.958 21.367 22.28 22.5 0 0 2.012.137 4.6.273-16.455-1.3-21.948-6.982-21.948-21.367 0-29.336 15.58-45.45 42.68-45.45l34.46.006c21.488 0 27.098 4.214 27.098 20.332 0 30.493-13.833 46.802-39.443 46.802l-7.056.01-7.363 32.783h29.933c50.844 0 79.814-31.073 79.814-85.732 0-36.82-15.137-50.254-57.007-50.254z" fill="#0098DD"/>
</svg>
